HIERARCHY
ROOT Hips
{
	OFFSET 0.000000 0.000000 0.000000
	CHANNELS 6 Xposition Yposition Zposition Xrotation Yrotation Zrotation
	JOINT LeftUpLeg_virtual
	{
		OFFSET 0.000000 0.000000 0.000000
		CHANNELS 3 Xrotation Yrotation Zrotation
		JOINT LeftUpLeg
		{
			OFFSET 10.205400 -3.823500 0.155100
			CHANNELS 3 Xrotation Yrotation Zrotation
			JOINT LeftLeg
			{
				OFFSET 0.708757 -12.982077 0.567790
				CHANNELS 3 Xrotation Yrotation Zrotation
				JOINT LeftFoot
				{
					OFFSET -0.708756 -10.717838 -2.184338
					CHANNELS 3 Xrotation Yrotation Zrotation
					JOINT LeftToeBase
					{
						OFFSET 0.108149 -7.191104 7.560241
						CHANNELS 3 Xrotation Yrotation Zrotation
						JOINT LeftToe_End
						{
							OFFSET 0.070230 0.081724 4.490308
							CHANNELS 3 Xrotation Yrotation Zrotation
							End Site
							{
								OFFSET 0 0 0
							}
						}
					}
				}
			}
		}
	}
	JOINT RightUpLeg_virtual
	{
		OFFSET 0.000000 0.000000 0.000000
		CHANNELS 3 Xrotation Yrotation Zrotation
		JOINT RightUpLeg
		{
			OFFSET -10.205400 -3.823500 0.005500
			CHANNELS 3 Xrotation Yrotation Zrotation
			JOINT RightLeg
			{
				OFFSET -0.708756 -12.982134 0.610632
				CHANNELS 3 Xrotation Yrotation Zrotation
				JOINT RightFoot
				{
					OFFSET 0.708754 -10.717769 -1.945823
					CHANNELS 3 Xrotation Yrotation Zrotation
					JOINT RightToeBase
					{
						OFFSET -0.108140 -7.191069 7.372968
						CHANNELS 3 Xrotation Yrotation Zrotation
						JOINT RightToe_End
						{
							OFFSET -0.070227 0.081735 4.479403
							CHANNELS 3 Xrotation Yrotation Zrotation
							End Site
							{
								OFFSET 0 0 0
							}
						}
					}
				}
			}
		}
	}
	JOINT Spine_virtual
	{
		OFFSET 0.000000 0.000000 0.000000
		CHANNELS 3 Xrotation Yrotation Zrotation
		JOINT Spine
		{
			OFFSET 0.000000 6.876099 0.125700
			CHANNELS 3 Xrotation Yrotation Zrotation
			JOINT Spine1
			{
				OFFSET 0.000000 5.730043 0.104720
				CHANNELS 3 Xrotation Yrotation Zrotation
				JOINT Spine1_split
				{
					OFFSET 0.000000 5.730043 0.104720
					CHANNELS 3 Xrotation Yrotation Zrotation
					JOINT Spine2
					{
						OFFSET 0.000000 5.730043 0.104720
						CHANNELS 3 Xrotation Yrotation Zrotation
						JOINT Neck_virtual
						{
							OFFSET 0.000000 0.000000 0.000000
							CHANNELS 3 Xrotation Yrotation Zrotation
							JOINT Neck
							{
								OFFSET 0.000000 10.314075 0.188496
								CHANNELS 3 Xrotation Yrotation Zrotation
								JOINT Head
								{
									OFFSET 0.000000 7.643700 -2.377400
									CHANNELS 3 Xrotation Yrotation Zrotation
									JOINT HeadTop_End
									{
										OFFSET 0.000000 43.788605 -13.619600
										CHANNELS 3 Xrotation Yrotation Zrotation
										End Site
										{
											OFFSET 0 0 0
										}
									}
								}
							}
						}
						JOINT LeftShoulder_virtual
						{
							OFFSET 0.000000 0.000000 0.000000
							CHANNELS 3 Xrotation Yrotation Zrotation
							JOINT LeftShoulder
							{
								OFFSET 2.196100 4.412489 0.087492
								CHANNELS 3 Xrotation Yrotation Zrotation
								JOINT LeftShoulder_split
								{
									OFFSET 2.196100 4.412489 0.087492
									CHANNELS 3 Xrotation Yrotation Zrotation
									JOINT LeftArm
									{
										OFFSET 8.771219 -2.981674 -0.026999
										CHANNELS 3 Xrotation Yrotation Zrotation
										JOINT LeftForeArm
										{
											OFFSET 8.512804 0.000000 -0.000000
											CHANNELS 3 Xrotation Yrotation Zrotation
											JOINT LeftHand
											{
												OFFSET 18.484802 0.000000 -0.000000
												CHANNELS 3 Xrotation Yrotation Zrotation
												End Site
												{
													OFFSET 0 0 0
												}
											}
										}
									}
								}
							}
						}
						JOINT RightShoulder_virtual
						{
							OFFSET 0.000000 0.000000 0.000000
							CHANNELS 3 Xrotation Yrotation Zrotation
							JOINT RightShoulder
							{
								OFFSET -2.196100 4.412496 0.070690
								CHANNELS 3 Xrotation Yrotation Zrotation
								JOINT RightShoulder_split
								{
									OFFSET -2.196100 4.412496 0.070690
									CHANNELS 3 Xrotation Yrotation Zrotation
									JOINT RightArm
									{
										OFFSET -8.771282 -2.981682 -0.094208
										CHANNELS 3 Xrotation Yrotation Zrotation
										JOINT RightForeArm
										{
											OFFSET -8.494598 0.000000 0.000000
											CHANNELS 3 Xrotation Yrotation Zrotation
											JOINT RightHand
											{
												OFFSET -18.483803 0.000000 0.000001
												CHANNELS 3 Xrotation Yrotation Zrotation
												End Site
												{
													OFFSET 0 0 0
												}
											}
										}
									}
								}
							}
						}
					}
				}
			}
		}
	}
}
MOTION
Frames: 5
Frame Time: 0.03333333
-0.198721 34.046288 0.987478 0.000000 0.000000 0.000000 -1.425309 7.753522 -2.447179 0.555950 12.146580 15.507268 12.617751 -5.896702 -2.713724 -15.170210 1.531857 -7.998301 2.630724 0.328151 -2.470731 0.000000 0.000000 0.000000 -1.383726 8.403966 -2.461881 3.535380 -3.765662 1.334957 7.166574 7.153656 1.570485 -7.153928 -0.783508 1.026035 -0.118387 0.559579 0.013440 0.000000 0.000000 0.000000 -0.990773 11.087699 -2.851076 9.474389 -0.524065 1.432918 3.122678 0.155608 -0.482133 0.309216 -2.171261 1.113774 0.000000 0.000000 0.000000 -4.303180 -0.053562 0.099281 0.095633 0.287221 0.422164 5.970166 -4.135909 -1.140971 0.000000 0.000000 0.000000 -4.657210 -0.490264 0.191135 0.554884 -3.882315 -8.212438 -0.573183 -1.771641 0.716696 4.669698 1.554275 -72.113479 3.482806 -11.779302 1.338034 0.000000 0.000000 0.000000 -5.452709 -0.813781 0.154664 0.736825 8.186583 5.732378 -2.894545 -1.052927 -0.542609 3.528131 12.908830 76.913729 16.755878 19.274556 -4.902699 0.000000 0.000000 0.000000 
-0.062491 34.055038 0.874954 0.000000 0.000000 0.000000 -1.272394 7.896891 -2.383227 0.753592 12.051883 15.145974 12.556248 -5.743477 -2.740538 -15.571073 1.610872 -8.093552 2.613318 0.303935 -2.377293 0.000000 0.000000 0.000000 -1.199449 8.373929 -2.452095 3.316668 -4.019117 0.948488 6.826918 7.229558 1.564081 -7.211107 -0.555763 0.727339 -0.015560 0.533678 -0.132440 0.000000 0.000000 0.000000 -0.792033 10.616415 -2.803848 9.307284 -0.486409 1.438441 3.086391 0.181506 -0.498740 0.253567 -2.304284 0.930713 0.000000 0.000000 0.000000 -4.192647 -0.015439 0.087480 0.145715 0.368197 0.410808 5.980177 -4.302965 -0.939887 0.000000 0.000000 0.000000 -4.655100 -0.468156 0.139234 0.596605 -3.815988 -8.115775 -0.641849 -1.631468 0.775846 4.549667 1.416610 -72.128567 3.438374 -11.870816 1.311414 0.000000 0.000000 0.000000 -5.483206 -0.777265 0.181048 0.720699 7.874167 5.586312 -2.942796 -1.031200 -0.523986 3.431039 13.297201 76.815354 16.820183 19.689555 -5.067381 0.000000 0.000000 0.000000 
0.133984 34.027039 0.880180 0.000000 0.000000 0.000000 -1.234108 8.116538 -2.351364 0.939071 11.767286 14.744883 12.709705 -5.599667 -2.855941 -16.123264 1.717516 -8.218085 2.585793 0.284346 -2.223346 0.000000 0.000000 0.000000 -1.010439 8.418954 -2.505150 3.771595 -4.067345 0.368260 6.213610 7.422750 1.509563 -7.864242 -0.064331 0.610598 -0.181543 0.463115 -0.429162 0.000000 0.000000 0.000000 -0.671927 10.121427 -2.694200 9.087655 -0.376357 1.441943 3.098487 0.251476 -0.528551 0.260362 -2.294927 0.801455 0.000000 0.000000 0.000000 -4.045437 0.053492 0.073244 0.045355 0.467648 0.291216 5.852048 -4.458358 -0.671796 0.000000 0.000000 0.000000 -4.590842 -0.413607 0.085850 0.649548 -3.749272 -7.908721 -0.765836 -1.661846 0.832558 4.398612 1.118057 -72.068550 3.470503 -11.948482 1.236169 0.000000 0.000000 0.000000 -5.407493 -0.700913 0.193582 0.734659 7.589157 5.380739 -2.935991 -1.192082 -0.510165 3.421821 13.806514 76.653171 16.959389 20.419545 -5.643332 0.000000 0.000000 0.000000 
0.366610 33.963501 1.034763 0.000000 0.000000 0.000000 -1.304191 8.356117 -2.345696 1.139264 11.376067 14.332780 12.927247 -5.367605 -3.049644 -16.751534 1.851198 -8.219063 2.573442 0.267938 -2.048553 0.000000 0.000000 0.000000 -0.841600 8.499199 -2.577760 4.837336 -4.076554 -0.392756 5.533585 7.628382 1.516071 -9.101879 0.573510 0.431890 -0.256032 0.401099 -0.787772 0.000000 0.000000 0.000000 -0.713467 9.703553 -2.556401 8.852045 -0.241356 1.456871 3.157922 0.342649 -0.546967 0.320307 -2.159166 0.765359 0.000000 0.000000 0.000000 -3.901872 0.123136 0.080551 -0.150937 0.569387 0.080439 5.627231 -4.617785 -0.356374 0.000000 0.000000 0.000000 -4.470216 -0.347155 0.049055 0.711739 -3.681647 -7.649609 -0.955902 -1.750363 0.882545 4.267357 0.679212 -72.032842 3.582704 -11.956283 1.121709 0.000000 0.000000 0.000000 -5.233384 -0.607909 0.204984 0.778001 7.360393 5.149984 -2.930295 -1.432047 -0.557702 3.480237 14.229028 76.490524 17.109291 21.261339 -6.530421 0.000000 0.000000 0.000000 
0.619092 33.893551 1.282131 0.000000 0.000000 0.000000 -1.445611 8.452804 -2.346418 1.467521 10.896328 13.915046 13.095243 -4.975287 -3.276999 -17.513817 2.030876 -7.924339 2.532528 0.264871 -1.846615 0.000000 0.000000 0.000000 -0.808127 8.437269 -2.625660 6.280035 -4.178157 -1.320256 4.787925 7.842856 1.716032 -10.646743 1.244693 0.265361 -0.075129 0.330588 -1.127499 0.000000 0.000000 0.000000 -0.882546 9.415094 -2.450197 8.631549 -0.108399 1.496506 3.241820 0.424404 -0.530032 0.389034 -1.970444 0.747102 0.000000 0.000000 0.000000 -3.786306 0.168466 0.125913 -0.374711 0.688330 -0.157454 5.373233 -4.775025 -0.029527 0.000000 0.000000 0.000000 -4.317464 -0.287789 0.048942 0.774291 -3.621823 -7.405031 -1.155802 -1.906241 0.907146 4.165638 0.150115 -72.085659 3.767195 -11.890901 0.991328 0.000000 0.000000 0.000000 -5.001929 -0.528514 0.231291 0.851987 7.227874 4.940547 -2.866391 -1.559916 -0.592555 3.485580 14.461300 76.408677 17.163068 22.018967 -7.579999 0.000000 0.000000 0.000000 
